<svg width="33" height="32" viewBox="0 0 33 32" fill="none" xmlns="http://www.w3.org/2000/svg">
<path d="M19.2496 10.6667H5.68772C4.19184 10.6667 2.97534 11.8627 2.97534 13.3333V26.6667C2.97534 28.1373 4.19184 29.3333 5.68772 29.3333H19.2496C20.7455 29.3333 21.962 28.1373 21.962 26.6667V13.3333C21.962 11.8627 20.7455 10.6667 19.2496 10.6667Z" fill="#B9B9B9"/>
<path d="M27.3867 2.66667H13.8248C13.1054 2.66667 12.4155 2.94762 11.9069 3.44772C11.3982 3.94782 11.1124 4.62609 11.1124 5.33334V8H21.962C22.6813 8 23.3712 8.28096 23.8799 8.78105C24.3886 9.28115 24.6743 9.95943 24.6743 10.6667V21.3333H27.3867C28.1061 21.3333 28.796 21.0524 29.3047 20.5523C29.8133 20.0522 30.0991 19.3739 30.0991 18.6667V5.33334C30.0991 4.62609 29.8133 3.94782 29.3047 3.44772C28.796 2.94762 28.1061 2.66667 27.3867 2.66667Z" fill="#B9B9B9"/>
</svg>
